<?xml version="1.0" encoding="utf-8"?>
<!-- Generator: Adobe Illustrator 23.0.2, SVG Export Plug-In . SVG Version: 6.00 Build 0)  -->
<svg version="1.1" id="Layer_1" xmlns="http://www.w3.org/2000/svg" xmlns:xlink="http://www.w3.org/1999/xlink" x="0px" y="0px"
	 viewBox="0 0 1000 1000" style="enable-background:new 0 0 1000 1000;" xml:space="preserve">
<style type="text/css">
	.st0{fill-rule:evenodd;clip-rule:evenodd;fill:#FFFFFF;}
	.st1{fill:none;stroke:#000000;stroke-width:5;stroke-miterlimit:10;}
	.st2{fill-rule:evenodd;clip-rule:evenodd;}
</style>
<rect class="st0" width="1000" height="1000"/>
<path class="st1" d="M639.35,734.75c0,6.57-7.88,11.9-17.59,11.9H373.25c-9.72,0-17.59-5.33-17.59-11.9V566.72
	c0-6.57,7.87-11.89,17.59-11.89h248.51c9.71,0,17.59,5.32,17.59,11.89V734.75z"/>
<g>
	<path class="st2" d="M499.06,536.82c-22.07-3.92-36.42-13.26-50.34-35.2c-6.06-9.55-16.89-20.75-22.26-33.21
		c-9.68-22.45-27.54-49.02-27.54-77.5c0-42.75,4.45-81.21,24.55-107.9C441.27,259.4,473.1,245,499.06,245"/>
	<path class="st2" d="M497.35,536.82c22.07-3.92,36.42-13.26,50.34-35.2c6.06-9.55,16.89-20.75,22.26-33.21
		c9.68-22.45,27.54-49.02,27.54-77.5c0-42.75-4.45-81.21-24.55-107.9C555.14,259.4,523.31,245,497.35,245"/>
</g>
<path class="st0" d="M505.8,462.81l68.28-68.28c2.09-2.09,5.69-0.97,6.19,1.94c3.74,21.59,8.65,86.84-73,71.13
	C505.05,467.18,504.2,464.42,505.8,462.81z"/>
<path class="st0" d="M490.92,462.81l-68.28-68.28c-2.09-2.09-5.69-0.97-6.19,1.94c-3.74,21.59-8.65,86.84,73,71.13
	C491.68,467.18,492.53,464.42,490.92,462.81z"/>
<g>
	<path d="M414.78,632.69h-11.79l-1.72,13.02h-19.9l12.53-70.52h29.49l13.02,70.52h-20.03L414.78,632.69z M407.53,590.42l-3.07,28.99
		h8.85l-3.81-28.99H407.53z"/>
	<path d="M439.97,575.19h20.39v57.25h18.18v13.27h-38.58V575.19z"/>
	<path d="M484.57,575.19h20.39v70.52h-20.39V575.19z"/>
	<path d="M515.52,575.19H553v13.27h-17.08v13.27h14.13v13.27h-14.13v17.45h17.57v13.27h-37.96V575.19z"/>
	<path d="M578.8,611.31v34.4h-19.17v-70.52l17.12-0.01l13.35,33.99v-33.97h18.92v70.52h-16.71L578.8,611.31z"/>
</g>
<g>
	<path d="M406.48,697.63h-8.35v28.26h-20.39v-70.52h34.77l13.64,10.32v18.31l-10.08,7l10.08,6.63v28.26h-19.66V697.63z
		 M406.48,668.63h-8.35v15.73h8.35V668.63z"/>
	<path d="M449.6,655.36h21.87l13.64,10.32v50l-12.9,10.2H449.6l-13.39-10.2v-50L449.6,655.36z M456.61,668.63v43.98h8.35v-43.98
		H456.61z"/>
	<path d="M508.58,655.36h21.87l13.64,10.32v50l-12.9,10.2h-22.61l-13.39-10.2v-50L508.58,655.36z M515.58,668.63v43.98h8.35v-43.98
		H515.58z"/>
	<path d="M587.35,689.4l6.36-34.04h24.09v70.52h-18.55v-44.72h-0.98l-8.35,44.72h-7.62l-8.48-44.72h-0.98v44.72H554.4v-70.52h23.77
		l7.2,34.03L587.35,689.4z"/>
</g>
</svg>
