<?xml version="1.0" encoding="utf-8"?>
<!-- Generator: Adobe Illustrator 23.0.2, SVG Export Plug-In . SVG Version: 6.00 Build 0)  -->
<svg version="1.1" id="Layer_1" xmlns="http://www.w3.org/2000/svg" xmlns:xlink="http://www.w3.org/1999/xlink" x="0px" y="0px"
	 viewBox="0 0 1000 1000" style="enable-background:new 0 0 1000 1000;" xml:space="preserve">
<style type="text/css">
	.st0{fill-rule:evenodd;clip-rule:evenodd;fill:#FFFFFF;}
	.st1{fill-rule:evenodd;clip-rule:evenodd;fill:none;stroke:#A630FF;stroke-width:5;stroke-miterlimit:10;}
	.st2{fill-rule:evenodd;clip-rule:evenodd;fill:#A630FF;}
</style>
<rect class="st0" width="1000" height="1000"/>
<g>
	<path class="st1" d="M500.43,724.42c-34.22-6.08-56.47-20.56-78.04-54.57c-9.39-14.81-26.19-32.17-34.51-51.49
		c-15-34.81-42.69-76-42.69-120.14c0-66.28,6.89-125.91,38.06-167.28C410.83,294.32,460.18,272,500.43,272"/>
	<path class="st1" d="M497.78,724.42c34.22-6.08,56.47-20.56,78.04-54.57c9.39-14.81,26.19-32.17,34.51-51.49
		c15-34.81,42.69-76,42.69-120.14c0-66.28-6.89-125.91-38.06-167.28C587.37,294.32,538.03,272,497.78,272"/>
</g>
<path class="st2" d="M510.88,609.68l105.85-105.85c3.24-3.24,8.82-1.51,9.6,3.01c5.8,33.47,13.41,134.62-113.17,110.28
	C509.71,616.45,508.4,612.17,510.88,609.68z"/>
<path class="st2" d="M487.82,609.68L381.97,503.83c-3.24-3.24-8.82-1.51-9.6,3.01c-5.8,33.47-13.41,134.62,113.17,110.28
	C488.99,616.45,490.31,612.17,487.82,609.68z"/>
</svg>
