<?xml version="1.0" encoding="utf-8"?>
<!-- Generator: Adobe Illustrator 23.0.2, SVG Export Plug-In . SVG Version: 6.00 Build 0)  -->
<svg version="1.1" id="Layer_1" xmlns="http://www.w3.org/2000/svg" xmlns:xlink="http://www.w3.org/1999/xlink" x="0px" y="0px"
	 viewBox="0 0 1000 1000" style="enable-background:new 0 0 1000 1000;" xml:space="preserve">
<style type="text/css">
	.st0{fill:#3F7D84;stroke:#000000;stroke-width:10;stroke-miterlimit:10;}
	.st1{stroke:#000000;stroke-width:5;stroke-miterlimit:10;}
	.st2{fill:#070000;stroke:#930093;stroke-width:5;stroke-miterlimit:10;}
	.st3{fill:#3F7E85;stroke:#000000;stroke-width:15;stroke-miterlimit:10;}
	.st4{opacity:0.8;fill:#54FFFF;}
	.st5{fill:#102E36;}
	.st6{fill:#10404A;}
	.st7{fill:#310259;stroke:#000000;stroke-width:10;stroke-miterlimit:10;}
	.st8{fill:none;stroke:#000000;stroke-width:10;stroke-miterlimit:10;}
	.st9{fill:#FFFFFF;}
	.st10{fill:#FCF8FF;}
	.st11{fill-rule:evenodd;clip-rule:evenodd;fill:#5F04AF;stroke:#000000;stroke-width:10;stroke-miterlimit:10;}
	.st12{fill-rule:evenodd;clip-rule:evenodd;fill:#FFFFFF;stroke:#000000;stroke-width:10;stroke-miterlimit:10;}
</style>
<polygon class="st0" points="519.45,165.78 447.88,188.87 428.63,221.96 419.4,245.82 404.77,257.37 381.69,303.55 370.91,312.78 
	365.52,340.49 365.52,354.34 338.59,384.36 351.67,419.76 368.6,440.54 394,464.4 423.25,480.56 443.26,494.42 461.73,502.11 
	474.81,512.89 488.47,519.43 504.83,522.13 532.54,526.74 553.7,519.43 576.41,506.73 614.89,466.71 641.06,435.16 641.06,397.44 
	641.06,369.74 649.52,358.96 629.51,325.1 607.19,277.38 604.11,266.6 614.89,255.06 614.12,244.28 576.41,209.65 533.31,169.63 "/>
<path class="st1" d="M497.13,511.35l-26.94-9.24l-26.17-14.62l-30.02-17.7l-36.94-31.56l-11.54-16.93v-11.54
	c0,0-6.93-13.85,3.85-25.4c10.77-11.54,3.08-7.7,3.08-7.7l25.78-15.01l41.95-11.16l48.49-6.93h33.09l26.17,6.16l20.78,9.24
	l28.48,14.62l17.7,13.85l16.93,17.7v16.16l-36.17,34.63l-30.79,27.71l-34.63,27.71H497.13z"/>
<path class="st2" d="M311.5,910.5"/>
<polygon class="st3" points="369.37,431.31 347.82,431.31 305.49,449.01 295.49,471.33 277.78,480.56 269.32,511.35 254.69,526.74 
	234.68,581.39 178.5,712.23 178.5,722.23 183.12,736.86 190.04,753.79 188.51,773.8 193.89,782.26 193.89,794.58 214.67,819.21 
	226.22,832.29 791.14,832.29 806.53,813.05 825,779.96 825,741.47 810.38,679.13 791.14,623.72 770.36,572.15 762.66,552.91 
	764.97,522.13 744.96,499.81 741.11,469.79 714.94,439.77 690.31,427.46 663.38,414.38 644.13,406.68 634.9,406.68 627.97,436.7 
	601.03,468.25 583.33,486.72 564.86,502.11 545.62,515.2 521.76,521.36 480.2,515.2 470.19,494.42 442.49,486.72 417.09,472.87 
	387.84,452.09 "/>
<polygon points="366.68,341.64 412.09,320.09 445.18,302.39 477.51,290.85 491.36,286.23 508.29,286.23 522.15,286.23 
	501.37,291.62 472.12,301.62 439.02,313.94 428.25,319.32 459.03,311.63 476.74,306.24 493.67,301.62 506.75,299.31 512.91,298.54 
	489.05,307.78 454.42,321.63 429.79,330.87 411.32,337.8 441.33,333.18 421.32,341.64 406.7,343.18 392.08,348.57 368.99,367.04 
	349.75,384.74 344.36,392.44 342.05,384.74 352.82,370.89 365.91,354.73 366.68,348.57 "/>
<polygon points="609.88,256.21 602.96,258.52 592.95,253.9 567.55,242.36 545.23,226.97 524.45,209.27 514.45,203.88 519.84,209.27 
	529.07,219.27 549.08,237.74 559.09,247.75 543.7,243.9 525.99,241.59 512.91,240.82 515.99,244.67 531.38,246.98 546.77,249.29 
	561.4,253.9 482.89,253.9 555.24,258.52 570.63,258.52 582.18,262.37 596.8,271.61 612.19,297.77 620.66,319.32 596.8,307.01 
	568.32,297.77 589.87,307.01 609.12,316.25 629.9,333.18 631.43,340.87 637.59,357.04 633.74,357.04 616.04,346.26 595.26,334.72 
	562.17,324.71 542.16,317.79 538.31,321.63 548.31,329.33 562.17,336.26 584.49,343.18 609.88,357.04 626.05,374.74 627.59,387.05 
	631.43,397.06 634.51,410.91 640.67,410.91 640.67,369.35 646.06,358.58 632.97,331.64 614.5,295.47 606.81,281.61 602.19,266.22 
	"/>
<path d="M479.82,327.79c0,0-8.47,5.39,0,7.7s26.94,0,26.94,0l21.55,0.77l23.86,3.08c0,0,17.7,4.62,32.33,14.62
	c14.62,10.01-10.01-9.24-10.01-9.24l-23.86-10.01l-21.55-4.62C529.07,330.1,501.37,325.48,479.82,327.79z"/>
<polygon points="371.64,316.93 427.09,279.69 439.41,274.3 433.25,285.08 403.24,309.7 373.99,332.79 367.78,336.79 "/>
<path class="st4" d="M364.19,503.67l6.63,25.36c0.57,2.19,4.96,4.23,12.14,5.66l33.35,6.62c7.35,1.46,16.99,2.15,26.61,1.9
	l34.69-0.89c13.63-0.35,26.89,1.18,33.9,3.91l87.52,34.07c0.79,0.31,1.67,0.6,2.63,0.88l67.18,19.66c4.89,1.43,7.55,3.2,7.55,5.03
	v16.69c0,1.12,24.57,3.9,44.2,5.96c14.17,1.48,22.38,4.96,20.18,8.52l-11.73,19.03c-0.35,0.57-0.44,1.15-0.26,1.72l3.06,9.93
	c0.45,1.45-0.8,2.9-3.6,4.2l-11.47,5.32c-5.19,2.4-4.89,5.25,0.8,7.59l22.49,9.26c2.94,1.21,4.49,2.58,4.49,3.97v7.09
	c0,2.4-4.61,4.68-12.58,6.22l-21.84,4.22c-8.6,1.66-13.25,4.17-12.5,6.76l2.09,7.28c0.48,1.65,3.12,3.23,7.58,4.52l14.4,4.17
	c6.82,1.97,9.26,4.57,6.62,7.02l0,0c-4.42,4.1-21.69,6.72-39.66,6.02l-58.23-2.25c-4.07-0.16-8.23-0.15-12.29,0.03l-73.85,3.26
	c-2.8,0.12-5.52,0.33-8.11,0.6l-33.49,3.58c-9.34,1-20.11,0.99-29.43-0.01l-91.25-9.87c-9.1-0.98-19.59-1.01-28.8-0.08l-58.41,5.92
	c-24.64,2.5-51.72-2.12-48.76-8.31l77.46-162.32c2.22-4.65-12.98-8.77-33.16-8.98"/>
<polygon points="391.31,286.23 415.17,268.53 402.08,274.69 406.7,266.22 419.78,257.75 435.18,247.75 452.11,236.97 463.65,226.97 
	436.72,237.74 427.48,241.59 421.32,245.44 413.63,251.6 405.93,258.52 399.77,268.53 "/>
<path class="st5" d="M355,733l-27-13l6,32l2,24l-18,8h-25c0,0-17,6-46-10c0,0,5,15,54,17l-9,5h-33c0,0-28,7-48-33c0,0,1,29,32,39
	c0,0,18,6,48,0l37,3l-23,5h-29h-35c0,0-29-5-45-25c0,0,19,30,31,40l68,1h74L355,733z"/>
<path class="st5" d="M686.08,784.19h16.16l-3.85,27.71h79.27c0,0,33.09-13.85,30.79-34.63c0,0-4.62-14.62,5.39-28.48l-18.47-71.58
	l-26.94-76.19l-13.85-35.4l-4.62-22.32v-10.77l-19.24-26.94c0,0,7.7-19.24-82.35-15.39c0,0,39.25-19.24,82.35-0.77l10.01,6.93
	l10.77,19.24l10.01,9.24l-1.54,27.71l1.54,10.01l15.39,36.94l21.55,55.41l10.78,35.4l10.01,41.56l3.08,21.55l0.77,22.32l-5.39,13.85
	l-12.31,22.32l-13.85,18.47L683,827.29L686.08,784.19z"/>
<path class="st5" d="M736.88,487.11h-13.08l0.77-5.39c0,0-8.47-10.77-47.72-10.77l10.01,6.16c0,0-47.72-1.54-62.34,13.08l-3.85,9.24
	l-53.11,23.09l-17.7,7.7c0,0-13.85,10.78-43.87,9.24l-28.48-4.62l-26.17-5.39l26.17,1.54l-20.01-6.16l-37.71-10.01l-33.86-6.93
	l-20.78-6.16l-5.39-7.7l24.63,4.62l15.39,1.54l16.16,2.31l18.47,0.77c0,0-25.4-21.55-68.5-25.4l-10.01-2.31
	c0,0,10.01-4.62,30.79,1.54c0,0,0.77-6.93-25.4-7.7l-53.88,6.16c0,0,20.78-13.08,60.03-11.54c0,0-18.47-14.62-65.42,4.62l6.16-16.16
	l13.85-4.62l22.32-10.01l19.24-2.31l6.16,4.62l10.01,10.77l10.01,8.47l20.01,13.85l29.25,16.93l15.39,5.39l12.31,6.93l9.24,16.16
	l21.55,3.85h23.09l19.24-1.54l15.39-6.93l21.55-16.93l9.24-3.08l36.94-11.54l18.47-6.93h-6.93l11.54-7.7c0,0-13.08,2.31-26.94,7.7
	s0.77-9.24,0.77-9.24v-12.31l11.54-13.85l8.47-29.25l16.93,6.93l23.09,10.77l16.16,7.7l14.62,7.7l11.54,11.54l12.31,13.85l2.31,6.16
	V487.11z"/>
<path class="st6" d="M573.33,595.24H437.87v-71.58h-6.93v71.58h-4.62l-4.62-77.73h-9.24l6.16,53.11c0,0-61.57-50.03-71.58-82.35
	c0,0-10.77,10.01,22.32,45.41l20.78,26.17v6.93l23.86,20.01c0,0,7.7,6.93,0,8.47l-23.86-18.47l16.93,18.47h-6.93l-17.7-16.93
	l-13.08-13.08l-24.63-20.78l-23.09-19.24l-18.47-13.85v9.24l0.77,5.39l7.7,10.78l12.31,13.85l4.62,6.93l-3.85,1.54l-10.77-6.16
	l-4.62-0.77l1.54,4.62l6.93,7.7l4.62,6.16l8.47,11.54l6.93,13.08l-6.16,1.54l-13.85-1.54l-8.47,1.54l-7.7,5.39l7.7-8.47l-10.01,6.93
	l-9.24,8.47l-3.08-16.93l-2.31-20.01l-2.31-13.85l-2.31,14.62v15.39l3.08,15.39l2.31,6.93l2.31,9.24v11.54l-3.08,7.7l-5.39,7.7
	l3.08,13.85l3.85,12.31l1.54,6.16l-1.54,1.54l-4.62-10.78l-3.85-5.39v-7.7l-2.31,6.16l3.85,11.54l2.31,8.47l-1.54,0.77l-4.62-10.77
	l-3.08-10.01v-8.47l-1.54-4.62l-4.62-2.31c0,0-4.62-10.77-1.54-13.85l8.47-25.4l-9.24,16.16l7.7-23.86l-9.24,17.7l-3.08-9.24
	l0.77-25.4l-2.31,13.85l-1.54-11.54v13.85v13.08l1.54,14.62l3.08,14.62l3.85,8.47l3.85,10.01c0,0,6.93,18.47-6.93,5.39
	c0,0-16.16-26.17-20.78-26.94c0,0,7.7,26.17,33.86,52.34c0,0,3.85,5.39-3.08,1.54l-22.32-17.7c0,0,3.08,11.54,23.09,24.63
	c0,0,6.93,6.16-3.08,0c0,0-26.94-15.39-37.71-10.78c0,0-20.01,8.47-25.4,18.47c0,0,11.54-8.47,20.01-13.85l2.31-0.77l-1.54,2.31
	c0,0-13.08,8.47-13.08,10.01c0,1.54,0,2.31,0,2.31l8.47-7.7l10.01-5.39h4.62l-9.24,6.93l9.24-3.85l3.85-1.54h4.62l7.7,2.31
	c0,0-7.7,1.54-8.47,4.62c0,0,6.93-3.08,15.39-2.31c0,0,18.47,3.85,24.63,10.78l-3.08,4.62l-4.62-0.77l-11.54-3.85l-20.01-0.77
	L233.14,713l-5.39,3.08l-3.08,4.62l7.7-4.62l10.01-2.31l13.85-0.77h10.78l3.08,1.54l-20.78,13.08l12.31-3.08l8.47-2.31l7.7-1.54
	l0.77,1.54l-0.77,3.08l-19.24,6.93l-18.47,7.7l-9.24,4.62v7.7l16.93-7.7l16.93-3.08l22.32-5.39l-10.01,9.24l6.93-0.77l9.24,0.77
	l8.47-5.39l-0.77,6.93l8.47-0.77l7.7-1.54l10.01,2.31l348.65-1.54l19.24-2.31l26.17,3.08l-13.08-9.24l20.78,3.08l11.54,3.85
	l12.31,5.39l11.54,6.93l6.93,3.08l6.93-8.47l-14.62-6.93l-18.47-10.78l-12.31-3.08l-13.85-2.31l-3.08-4.62l7.7-7.7l3.08-3.85
	l25.4,16.93l11.54,10.01l14.62,6.93h6.16l1.54-7.7l-14.62-12.31l-16.16-14.62l-10.01-8.47l1.54-2.31l10.01,4.62l20.01,13.08
	l20.01,13.85l2.31-7.7L782.67,713l-10.01-6.93l-8.47-9.24l-6.16-7.7l-29.25-1.54h-13.85l0.77-6.16l12.31-2.31l-14.62-0.77l9.24-6.16
	l-3.08-8.47l-10.77,12.31l-3.85-3.85v-4.62l6.16-9.24l20.78-21.55l13.08-7.7l6.16-8.47l5.39-13.85l2.31-10.77l0.77-5.39l-10.01,7.7
	l-6.16,10.01l-10.01,11.54l-6.93,6.93l-7.7,7.7c0,0-9.24,3.85-6.93-6.93l-0.77-10.01c0,0,1.54-6.93-8.47-13.85
	c0,0-3.08-8.47-17.7-8.47l20.01-23.09l-19.24,15.39l10.01-13.85l15.39-23.86l11.54-17.7c0,0,3.85-11.54-1.54-14.62l-12.31,16.93
	l-26.17,32.33c0,0-16.16,20.01-13.08-4.62l16.93-37.71l-32.33,32.32l-23.09,23.86l-5.39,6.93l-4.62,0.77l-3.85,3.08v3.85
	l-20.78-0.77V515.2l-8.47,3.85l1.54,75.42l-3.85,2.31l-3.08-0.77l1.54-76.96l-7.7,6.16l-0.77,65.42L573.33,595.24z"/>
<path class="st7" d="M307.03,611.4c0,0-3.08-15.39,16.93-14.62c20.01,0.77,356.34-0.77,356.34-0.77s16.16-0.77,15.39,13.85
	c-0.77,14.62-11.54,220.89-11.54,220.89H336.28L307.03,611.4z"/>
<path class="st8" d="M307.03,611.4c0,0-3.08-15.39,16.93-14.62c20.01,0.77,356.34-0.77,356.34-0.77s16.16-0.77,15.39,13.85
	c-0.77,14.62-11.54,220.89-11.54,220.89H336.28L307.03,611.4z"/>
<g>
	<path class="st9" d="M420.34,685.14h-12.94l-1.89,14.29h-21.84l13.75-77.4h32.36l14.29,77.4h-21.98L420.34,685.14z M412.38,638.76
		l-3.37,31.82h9.71l-4.18-31.82H412.38z"/>
	<path class="st9" d="M447.98,622.04h22.38v62.84h19.96v14.56h-42.34V622.04z"/>
	<path class="st9" d="M496.93,622.04h22.38v77.4h-22.38V622.04z"/>
	<path class="st9" d="M530.91,622.04h41.13v14.56h-18.74v14.56h15.51v14.56h-15.51v19.15h19.28v14.56h-41.67V622.04z"/>
	<path class="st9" d="M600.35,661.68v37.76h-21.04v-77.4l18.79-0.02l14.66,37.3v-37.29h20.77v77.4h-18.34L600.35,661.68z"/>
</g>
<g>
	<path class="st10" d="M411.23,777.97h-9.17v31.01h-22.38v-77.4h38.16l14.97,11.33V763l-11.06,7.69l11.06,7.28v31.01h-21.57V777.97z
		 M411.23,746.15h-9.17v17.26h9.17V746.15z"/>
	<path class="st10" d="M458.56,731.58h24l14.97,11.33v54.88l-14.16,11.19h-24.81l-14.7-11.19v-54.88L458.56,731.58z M466.24,746.15
		v48.27h9.17v-48.27H466.24z"/>
	<path class="st10" d="M523.28,731.58h24l14.97,11.33v54.88l-14.16,11.19h-24.81l-14.7-11.19v-54.88L523.28,731.58z M530.97,746.15
		v48.27h9.17v-48.27H530.97z"/>
	<path class="st10" d="M609.74,768.94l6.98-37.36h26.44v77.4h-20.36V759.9h-1.08l-9.17,49.08h-8.36l-9.3-49.08h-1.08v49.08h-20.23
		v-77.4h26.09l7.9,37.35L609.74,768.94z"/>
</g>
<polyline points="441,208 430,225 417,251 453,209 438,220 457,187 450,190 "/>
<polygon points="512,166.23 521.58,166.23 528.77,170.27 540.74,182.38 560.71,200.94 567.89,207.4 564.7,213.86 567.89,217.9 
	589.45,232.43 604.62,242.12 610.21,251 615,251 615,243.73 583.06,215.48 546.33,180.76 527.97,166.23 518.39,163 "/>
<g>
	<path class="st11" d="M500.06,547.82c-22.07-3.92-36.42-13.26-50.34-35.2c-6.06-9.55-16.89-20.75-22.26-33.21
		c-9.68-22.45-27.54-49.02-27.54-77.5c0-13.31-1.04-22.49,1.63-33.14C404,359,420.5,356.82,443,352c28-6,31.1-6,57.06-6"/>
	<path class="st11" d="M498.35,547.82c22.07-3.92,36.42-13.26,50.34-35.2c6.06-9.55,16.89-20.75,22.26-33.21
		c9.68-22.45,27.54-49.02,27.54-77.5c0-9.27,0.11-13.9-0.74-21.93C597,373,589,373,566.93,361.01
		C539.91,346.33,524.31,346,498.35,346"/>
</g>
<path class="st12" d="M506.8,468.81l68.28-68.28c2.09-2.09,5.69-0.97,6.19,1.94c3.74,21.59,8.65,86.84-73,71.13
	C506.05,473.18,505.2,470.42,506.8,468.81z"/>
<path class="st12" d="M491.92,468.81l-68.28-68.28c-2.09-2.09-5.69-0.97-6.19,1.94c-3.74,21.59-8.65,86.84,73,71.13
	C492.68,473.18,493.53,470.42,491.92,468.81z"/>
</svg>
