<?xml version="1.0" encoding="utf-8"?>
<!-- Generator: Adobe Illustrator 23.0.2, SVG Export Plug-In . SVG Version: 6.00 Build 0)  -->
<svg version="1.1" id="Layer_1" xmlns="http://www.w3.org/2000/svg" xmlns:xlink="http://www.w3.org/1999/xlink" x="0px" y="0px"
	 viewBox="0 0 1000 1000" style="enable-background:new 0 0 1000 1000;" xml:space="preserve">
<style type="text/css">
	.st0{fill:#A630FF;}
	.st1{fill:#3F7D84;stroke:#000000;stroke-width:10;stroke-miterlimit:10;}
	.st2{stroke:#000000;stroke-width:5;stroke-miterlimit:10;}
	.st3{fill:#070000;stroke:#930093;stroke-width:5;stroke-miterlimit:10;}
	.st4{fill:#3F7E85;stroke:#000000;stroke-width:15;stroke-miterlimit:10;}
	.st5{opacity:0.8;fill:#54FFFF;}
	.st6{fill:#102E36;}
	.st7{fill:#10404A;}
	.st8{fill:#6C3199;stroke:#000000;stroke-width:10;stroke-miterlimit:10;}
	.st9{fill:none;stroke:#000000;stroke-width:10;stroke-miterlimit:10;}
	.st10{fill:#FFFFFF;stroke:#000000;stroke-width:3;stroke-miterlimit:10;}
	.st11{fill:#FCF8FF;stroke:#000000;stroke-width:3;stroke-miterlimit:10;}
	.st12{fill-rule:evenodd;clip-rule:evenodd;fill:#7506C9;stroke:#000000;stroke-width:10;stroke-miterlimit:10;}
	.st13{fill-rule:evenodd;clip-rule:evenodd;fill:#FFFFFF;stroke:#000000;stroke-width:7;stroke-miterlimit:10;}
</style>
<rect x="-250" y="253" class="st0" width="1500" height="500"/>
<polygon class="st1" points="509.87,292.75 464.87,307.27 452.77,328.07 446.96,343.07 437.77,350.33 423.25,379.37 416.48,385.17 
	413.09,402.59 413.09,411.3 396.15,430.18 404.38,452.44 415.02,465.5 430.99,480.5 449.38,490.66 461.96,499.37 473.58,504.21 
	481.8,510.99 490.39,515.1 500.67,516.79 518.09,519.7 531.4,515.1 545.68,507.12 569.87,481.95 586.32,462.11 586.32,438.4 
	586.32,420.98 591.65,414.21 579.07,392.92 565.03,362.91 563.1,356.14 569.87,348.88 569.39,342.11 545.68,320.33 518.58,295.17 
	"/>
<path class="st2" d="M495.83,510.02l-16.94-5.81l-16.45-9.19l-18.87-11.13l-23.23-19.84l-7.26-10.65v-7.26c0,0-4.36-8.71,2.42-15.97
	s1.94-4.84,1.94-4.84l16.21-9.44l26.37-7.02l30.49-4.36h20.81l16.45,3.87l13.07,5.81l17.9,9.19l11.13,8.71l10.65,11.13v10.16
	l-22.74,21.78l-19.36,17.42l-21.78,17.42H495.83z"/>
<path class="st3" d="M311.5,910.5"/>
<polygon class="st4" points="415.51,459.69 401.96,459.69 375.34,470.82 369.05,484.86 357.92,490.66 352.6,510.02 343.41,519.7 
	330.82,554.05 295.5,636.32 295.5,642.61 298.4,651.8 302.76,662.45 301.79,675.03 305.18,680.35 305.18,688.1 318.24,703.58 
	325.5,711.81 680.68,711.81 690.36,699.71 701.98,678.9 701.98,654.71 692.78,615.51 680.68,580.67 667.62,548.25 662.78,536.15 
	664.23,516.79 651.65,502.76 649.23,483.89 632.78,465.02 617.29,457.27 600.36,449.05 588.26,444.21 582.45,444.21 578.1,463.08 
	561.16,482.92 550.03,494.53 538.42,504.21 526.32,512.44 511.32,516.31 485.19,512.44 478.9,499.37 461.48,494.53 445.51,485.82 
	427.12,472.76 "/>
<polygon points="413.81,403.32 442.36,389.77 463.17,378.64 483.5,371.38 492.21,368.48 502.85,368.48 511.56,368.48 498.5,371.87 
	480.11,378.16 459.3,385.9 452.53,389.29 471.88,384.45 483.01,381.06 493.66,378.16 501.88,376.71 505.75,376.22 490.75,382.03 
	468.98,390.74 453.49,396.55 441.88,400.9 460.75,398 448.17,403.32 438.98,404.29 429.78,407.67 415.27,419.29 403.17,430.42 
	399.78,435.26 398.33,430.42 405.1,421.71 413.33,411.55 413.81,407.67 "/>
<polygon points="566.73,349.61 562.37,351.06 556.08,348.15 540.11,340.9 526.08,331.22 513.01,320.09 506.72,316.7 510.11,320.09 
	515.92,326.38 528.5,337.99 534.79,344.28 525.11,341.86 513.98,340.41 505.75,339.93 507.69,342.35 517.37,343.8 527.05,345.25 
	536.24,348.15 486.88,348.15 532.37,351.06 542.05,351.06 549.31,353.48 558.5,359.28 568.18,375.74 573.5,389.29 558.5,381.54 
	540.6,375.74 554.14,381.54 566.24,387.35 579.31,398 580.28,402.84 584.15,413 581.73,413 570.6,406.22 557.53,398.96 
	536.72,392.67 524.14,388.32 521.72,390.74 528.01,395.58 536.72,399.93 550.76,404.29 566.73,413 576.89,424.13 577.86,431.87 
	580.28,438.16 582.21,446.87 586.08,446.87 586.08,420.74 589.47,413.97 581.24,397.03 569.63,374.29 564.79,365.58 561.89,355.9 
	"/>
<path d="M484.95,394.61c0,0-5.32,3.39,0,4.84c5.32,1.45,16.94,0,16.94,0l13.55,0.48l15,1.94c0,0,11.13,2.9,20.32,9.19
	c9.19,6.29-6.29-5.81-6.29-5.81l-15-6.29l-13.55-2.9C515.92,396.06,498.5,393.16,484.95,394.61z"/>
<polygon points="416.94,387.78 451.8,364.37 459.54,360.98 455.67,367.75 436.8,383.24 418.41,397.75 414.51,400.27 "/>
<path class="st5" d="M412.25,505.19l4.17,15.95c0.36,1.38,3.12,2.66,7.64,3.56l20.97,4.16c4.62,0.92,10.68,1.35,16.73,1.19
	l21.81-0.56c8.57-0.22,16.9,0.74,21.32,2.46l55.03,21.42c0.5,0.19,1.05,0.38,1.65,0.56l42.24,12.36c3.07,0.9,4.75,2.01,4.75,3.16
	v10.49c0,0.7,15.45,2.45,27.79,3.74c8.91,0.93,14.07,3.12,12.69,5.36l-7.38,11.97c-0.22,0.36-0.28,0.72-0.17,1.08l1.92,6.24
	c0.28,0.91-0.5,1.82-2.26,2.64l-7.21,3.34c-3.26,1.51-3.08,3.3,0.5,4.77l14.14,5.83c1.85,0.76,2.82,1.62,2.82,2.5v4.46
	c0,1.51-2.9,2.94-7.91,3.91l-13.73,2.65c-5.41,1.04-8.33,2.62-7.86,4.25l1.32,4.58c0.3,1.04,1.96,2.03,4.77,2.84l9.06,2.62
	c4.29,1.24,5.82,2.87,4.16,4.42l0,0c-2.78,2.58-13.63,4.22-24.94,3.79l-36.61-1.41c-2.56-0.1-5.18-0.09-7.73,0.02l-46.43,2.05
	c-1.76,0.08-3.47,0.2-5.1,0.38l-21.06,2.25c-5.87,0.63-12.64,0.62-18.51-0.01l-57.37-6.2c-5.72-0.62-12.32-0.64-18.11-0.05
	l-36.72,3.72c-15.49,1.57-32.52-1.33-30.66-5.23l48.7-102.06c1.4-2.92-8.16-5.51-20.85-5.65"/>
<polygon points="429.3,368.48 444.3,357.35 436.07,361.22 438.98,355.9 447.2,350.57 456.88,344.28 467.53,337.51 474.79,331.22 
	457.85,337.99 452.04,340.41 448.17,342.83 443.33,346.7 438.49,351.06 434.62,357.35 "/>
<path class="st6" d="M406.47,649.38l-16.98-8.17l3.77,20.12l1.26,15.09l-11.32,5.03h-15.72c0,0-10.69,3.77-28.92-6.29
	c0,0,3.14,9.43,33.95,10.69l-5.66,3.14h-20.75c0,0-17.6,4.4-30.18-20.75c0,0,0.63,18.23,20.12,24.52c0,0,11.32,3.77,30.18,0
	l23.26,1.89l-14.46,3.14H356.8H334.8c0,0-18.23-3.14-28.29-15.72c0,0,11.95,18.86,19.49,25.15l42.75,0.63h46.53L406.47,649.38z"/>
<path class="st6" d="M614.63,681.56h10.16l-2.42,17.42h49.84c0,0,20.81-8.71,19.36-21.78c0,0-2.9-9.19,3.39-17.9l-11.61-45
	l-16.94-47.91l-8.71-22.26l-2.9-14.03v-6.77l-12.1-16.94c0,0,4.84-12.1-51.78-9.68c0,0,24.68-12.1,51.78-0.48l6.29,4.36l6.77,12.1
	l6.29,5.81l-0.97,17.42l0.97,6.29l9.68,23.23l13.55,34.84l6.77,22.26l6.29,26.13l1.94,13.55l0.48,14.03l-3.39,8.71l-7.74,14.03
	l-8.71,11.61l-68.23-1.94L614.63,681.56z"/>
<path class="st6" d="M646.57,494.78h-8.23l0.48-3.39c0,0-5.32-6.77-30-6.77l6.29,3.87c0,0-30-0.97-39.2,8.23l-2.42,5.81
	l-33.39,14.52l-11.13,4.84c0,0-8.71,6.77-27.58,5.81l-17.9-2.9l-16.45-3.39l16.45,0.97l-12.58-3.87l-23.71-6.29l-21.29-4.36
	l-13.07-3.87l-3.39-4.84l15.48,2.9l9.68,0.97l10.16,1.45l11.61,0.48c0,0-15.97-13.55-43.07-15.97l-6.29-1.45
	c0,0,6.29-2.9,19.36,0.97c0,0,0.48-4.36-15.97-4.84l-33.87,3.87c0,0,13.07-8.23,37.74-7.26c0,0-11.61-9.19-41.13,2.9l3.87-10.16
	l8.71-2.9l14.03-6.29l12.1-1.45l3.87,2.9l6.29,6.77l6.29,5.32l12.58,8.71l18.39,10.65l9.68,3.39l7.74,4.36l5.81,10.16l13.55,2.42
	h14.52l12.1-0.97l9.68-4.36l13.55-10.65l5.81-1.94l23.23-7.26l11.61-4.36h-4.36l7.26-4.84c0,0-8.23,1.45-16.94,4.84
	c-8.71,3.39,0.48-5.81,0.48-5.81v-7.74l7.26-8.71l5.32-18.39l10.65,4.36l14.52,6.77l10.16,4.84l9.19,4.84l7.26,7.26l7.74,8.71
	l1.45,3.87V494.78z"/>
<path class="st7" d="M543.74,562.76h-85.17v-45h-4.36v45h-2.9l-2.9-48.87h-5.81l3.87,33.39c0,0-38.71-31.45-45-51.78
	c0,0-6.77,6.29,14.03,28.55l13.07,16.45v4.36l15,12.58c0,0,4.84,4.36,0,5.32l-15-11.61l10.65,11.61h-4.36l-11.13-10.65l-8.23-8.23
	l-15.48-13.07l-14.52-12.1l-11.61-8.71v5.81l0.48,3.39l4.84,6.77l7.74,8.71l2.9,4.36l-2.42,0.97l-6.77-3.87l-2.9-0.48l0.97,2.9
	l4.36,4.84l2.9,3.87l5.32,7.26l4.36,8.23l-3.87,0.97l-8.71-0.97l-5.32,0.97l-4.84,3.39l4.84-5.32l-6.29,4.36l-5.81,5.32l-1.94-10.65
	l-1.45-12.58l-1.45-8.71l-1.45,9.19v9.68l1.94,9.68l1.45,4.36l1.45,5.81v7.26l-1.94,4.84l-3.39,4.84l1.94,8.71l2.42,7.74l0.97,3.87
	l-0.97,0.97l-2.9-6.77l-2.42-3.39v-4.84l-1.45,3.87l2.42,7.26l1.45,5.32l-0.97,0.48l-2.9-6.77l-1.94-6.29v-5.32l-0.97-2.9l-2.9-1.45
	c0,0-2.9-6.77-0.97-8.71l5.32-15.97l-5.81,10.16l4.84-15l-5.81,11.13l-1.94-5.81l0.48-15.97l-1.45,8.71l-0.97-7.26v8.71v8.23
	l0.97,9.19l1.94,9.19l2.42,5.32l2.42,6.29c0,0,4.36,11.61-4.36,3.39c0,0-10.16-16.45-13.07-16.94c0,0,4.84,16.45,21.29,32.91
	c0,0,2.42,3.39-1.94,0.97l-14.03-11.13c0,0,1.94,7.26,14.52,15.48c0,0,4.36,3.87-1.94,0c0,0-16.94-9.68-23.71-6.77
	c0,0-12.58,5.32-15.97,11.61c0,0,7.26-5.32,12.58-8.71l1.45-0.48l-0.97,1.45c0,0-8.23,5.32-8.23,6.29c0,0.97,0,1.45,0,1.45
	l5.32-4.84l6.29-3.39h2.9l-5.81,4.36l5.81-2.42l2.42-0.97h2.9l4.84,1.45c0,0-4.84,0.97-5.32,2.9c0,0,4.36-1.94,9.68-1.45
	c0,0,11.61,2.42,15.48,6.77l-1.94,2.9l-2.9-0.48l-7.26-2.42l-12.58-0.48l-7.74,1.45l-3.39,1.94l-1.94,2.9l4.84-2.9l6.29-1.45
	l8.71-0.48h6.77l1.94,0.97L340.02,646l7.74-1.94l5.32-1.45l4.84-0.97l0.48,0.97l-0.48,1.94l-12.1,4.36l-11.61,4.84l-5.81,2.9v4.84
	l10.65-4.84l10.65-1.94l14.03-3.39l-6.29,5.81l4.36-0.48l5.81,0.48l5.32-3.39l-0.48,4.36l5.32-0.48l4.84-0.97l6.29,1.45l219.21-0.97
	l12.1-1.45l16.45,1.94l-8.23-5.81l13.07,1.94l7.26,2.42l7.74,3.39l7.26,4.36l4.36,1.94l4.36-5.32l-9.19-4.36l-11.61-6.77l-7.74-1.94
	L635.2,646l-1.94-2.9l4.84-4.84l1.94-2.42l15.97,10.65l7.26,6.29l9.19,4.36h3.87l0.97-4.84l-9.19-7.74l-10.16-9.19l-6.29-5.32
	l0.97-1.45l6.29,2.9l12.58,8.23l12.58,8.71l1.45-4.84l-10.16-6.77l-6.29-4.36l-5.32-5.81l-3.87-4.84l-18.39-0.97h-8.71l0.48-3.87
	l7.74-1.45l-9.19-0.48l5.81-3.87l-1.94-5.32l-6.77,7.74l-2.42-2.42v-2.9l3.87-5.81l13.07-13.55l8.23-4.84l3.87-5.32l3.39-8.71
	l1.45-6.77l0.48-3.39l-6.29,4.84l-3.87,6.29l-6.29,7.26l-4.36,4.36l-4.84,4.84c0,0-5.81,2.42-4.36-4.36l-0.48-6.29
	c0,0,0.97-4.36-5.32-8.71c0,0-1.94-5.32-11.13-5.32l12.58-14.52l-12.1,9.68l6.29-8.71l9.68-15l7.26-11.13c0,0,2.42-7.26-0.97-9.19
	l-7.74,10.65l-16.45,20.32c0,0-10.16,12.58-8.23-2.9l10.65-23.71l-20.32,20.32l-14.52,15l-3.39,4.36l-2.9,0.48l-2.42,1.94v2.42
	l-13.07-0.48v-49.84l-5.32,2.42l0.97,47.42l-2.42,1.45l-1.94-0.48l0.97-48.39l-4.84,3.87l-0.48,41.13L543.74,562.76z"/>
<path class="st8" d="M376.31,572.93c0,0-1.94-9.68,10.65-9.19S611,563.25,611,563.25s10.16-0.48,9.68,8.71s-7.26,138.88-7.26,138.88
	H394.7L376.31,572.93z"/>
<path class="st9" d="M376.31,572.93c0,0-1.94-9.68,10.65-9.19S611,563.25,611,563.25s10.16-0.48,9.68,8.71s-7.26,138.88-7.26,138.88
	H394.7L376.31,572.93z"/>
<g>
	<path class="st10" d="M447.55,619.29h-8.14l-1.19,8.99h-13.73l8.65-48.66h20.35l8.99,48.66h-13.82L447.55,619.29z M442.55,590.12
		l-2.12,20.01h6.1l-2.63-20.01H442.55z"/>
	<path class="st10" d="M464.93,579.61H479v39.51h12.55v9.16h-26.62V579.61z"/>
	<path class="st10" d="M495.71,579.61h14.07v48.66h-14.07V579.61z"/>
	<path class="st10" d="M517.07,579.61h25.86v9.16h-11.79v9.16h9.75v9.16h-9.75v12.04h12.12v9.16h-26.2V579.61z"/>
	<path class="st10" d="M560.73,604.54v23.74h-13.23v-48.66l11.81-0.01l9.21,23.45v-23.44h13.06v48.66h-11.53L560.73,604.54z"/>
</g>
<g>
	<path class="st11" d="M441.82,677.65h-5.77v19.5h-14.07v-48.66h23.99l9.41,7.12v12.63l-6.95,4.83l6.95,4.58v19.5h-13.57V677.65z
		 M441.82,657.64h-5.77v10.85h5.77V657.64z"/>
	<path class="st11" d="M471.58,648.49h15.09l9.41,7.12v34.51l-8.9,7.04h-15.6l-9.24-7.04v-34.51L471.58,648.49z M476.41,657.64V688
		h5.77v-30.35H476.41z"/>
	<path class="st11" d="M512.28,648.49h15.09l9.41,7.12v34.51l-8.9,7.04h-15.6l-9.24-7.04v-34.51L512.28,648.49z M517.11,657.64V688
		h5.77v-30.35H517.11z"/>
	<path class="st11" d="M566.63,671.97l4.39-23.49h16.62v48.66h-12.8v-30.86h-0.68l-5.77,30.86h-5.26l-5.85-30.86h-0.68v30.86H543.9
		v-48.66h16.41l4.97,23.48L566.63,671.97z"/>
</g>
<polyline points="460.54,319.29 453.63,329.98 445.45,346.33 468.09,319.92 458.66,326.84 470.6,306.09 466.2,307.98 "/>
<polygon points="505.18,293.03 511.21,293.03 515.73,295.57 523.26,303.18 535.81,314.86 540.32,318.92 538.32,322.98 
	540.32,325.52 553.88,334.65 563.42,340.74 566.93,346.33 569.94,346.33 569.94,341.76 549.86,323.99 526.77,302.17 515.22,293.03 
	509.2,291 "/>
<g>
	<path class="st12" d="M497.67,532.95c-13.88-2.47-22.9-8.34-31.65-22.13c-3.81-6.01-10.62-13.05-14-20.88
		c-6.08-14.12-17.31-30.82-17.31-48.72c0-8.37-0.65-14.14,1.02-20.84c1.54-6.14,11.91-7.51,26.06-10.54
		c17.6-3.77,19.55-3.77,35.87-3.77"/>
	<path class="st12" d="M496.6,532.95c13.88-2.47,22.9-8.34,31.65-22.13c3.81-6.01,10.62-13.05,14-20.88
		c6.08-14.12,17.31-30.82,17.31-48.72c0-5.83,0.07-8.74-0.47-13.79c-0.47-4.39-5.5-4.39-19.37-11.93
		c-16.99-9.23-26.8-9.44-43.12-9.44"/>
</g>
<path class="st13" d="M501.92,483.28l42.93-42.93c1.32-1.32,3.58-0.61,3.89,1.22c2.35,13.58,5.44,54.6-45.9,44.72
	C501.44,486.02,500.91,484.29,501.92,483.28z"/>
<path class="st13" d="M492.56,483.28l-42.93-42.93c-1.32-1.32-3.58-0.61-3.89,1.22c-2.35,13.58-5.44,54.6,45.9,44.72
	C493.04,486.02,493.57,484.29,492.56,483.28z"/>
</svg>
