<?xml version="1.0" encoding="utf-8"?>
<!-- Generator: Adobe Illustrator 23.0.2, SVG Export Plug-In . SVG Version: 6.00 Build 0)  -->
<svg version="1.1" id="Layer_1" xmlns="http://www.w3.org/2000/svg" xmlns:xlink="http://www.w3.org/1999/xlink" x="0px" y="0px"
	 viewBox="0 0 1000 1000" style="enable-background:new 0 0 1000 1000;" xml:space="preserve">
<style type="text/css">
	.st0{fill:#7506C9;}
	.st1{fill:#3F7D84;stroke:#000000;stroke-width:10;stroke-miterlimit:10;}
	.st2{stroke:#000000;stroke-width:5;stroke-miterlimit:10;}
	.st3{fill:#070000;stroke:#930093;stroke-width:5;stroke-miterlimit:10;}
	.st4{fill:#3F7E85;stroke:#000000;stroke-width:15;stroke-miterlimit:10;}
	.st5{opacity:0.8;fill:#54FFFF;}
	.st6{fill:#102E36;}
	.st7{fill:#10404A;}
	.st8{fill:#6C3199;stroke:#000000;stroke-width:10;stroke-miterlimit:10;}
	.st9{fill:none;stroke:#000000;stroke-width:10;stroke-miterlimit:10;}
	.st10{fill:#FFFFFF;stroke:#000000;stroke-width:3;stroke-miterlimit:10;}
	.st11{fill:#FCF8FF;stroke:#000000;stroke-width:3;stroke-miterlimit:10;}
	.st12{fill-rule:evenodd;clip-rule:evenodd;fill:#7506C9;stroke:#000000;stroke-width:10;stroke-miterlimit:10;}
	.st13{fill-rule:evenodd;clip-rule:evenodd;fill:#FFFFFF;stroke:#000000;stroke-width:7;stroke-miterlimit:10;}
</style>
<rect class="st0" width="1000" height="1000"/>
<polygon class="st1" points="511.51,259.03 459.23,275.89 445.18,300.06 438.44,317.49 427.76,325.92 410.89,359.65 403.02,366.39 
	399.09,386.63 399.09,396.74 379.42,418.67 388.97,444.52 401.34,459.7 419.89,477.12 441.25,488.93 455.86,499.05 469.35,504.67 
	478.91,512.54 488.88,517.31 500.83,519.28 521.06,522.65 536.52,517.31 553.1,508.04 581.21,478.81 600.32,455.76 600.32,428.22 
	600.32,407.99 606.5,400.12 591.89,375.38 575.59,340.53 573.34,332.67 581.21,324.23 580.65,316.36 553.1,291.07 521.63,261.84 "/>
<path class="st2" d="M495.21,511.41l-19.67-6.75l-19.11-10.68l-21.92-12.93l-26.98-23.05l-8.43-12.37v-8.43
	c0,0-5.06-10.12,2.81-18.55c7.87-8.43,2.25-5.62,2.25-5.62l18.83-10.96l30.63-8.15l35.41-5.06h24.17l19.11,4.5l15.18,6.75
	l20.8,10.68l12.93,10.12l12.37,12.93v11.8l-26.42,25.29l-22.48,20.24l-25.29,20.24H495.21z"/>
<path class="st3" d="M311.5,910.5"/>
<polygon class="st4" points="401.9,452.95 386.16,452.95 355.25,465.88 347.94,482.18 335.01,488.93 328.83,511.41 318.15,522.65 
	303.53,562.56 262.5,658.12 262.5,665.43 265.87,676.11 270.93,688.47 269.81,703.09 273.74,709.27 273.74,718.26 288.92,736.25 
	297.35,745.81 709.93,745.81 721.17,731.75 734.66,707.58 734.66,679.48 723.98,633.95 709.93,593.48 694.75,555.82 689.13,541.77 
	690.82,519.28 676.2,502.98 673.39,481.06 654.28,459.14 636.29,450.14 616.62,440.59 602.57,434.97 595.82,434.97 590.76,456.89 
	571.09,479.93 558.16,493.43 544.67,504.67 530.62,514.22 513.19,518.72 482.84,514.22 475.53,499.05 455.3,493.43 436.75,483.31 
	415.39,468.13 "/>
<polygon points="399.93,387.47 433.1,371.73 457.27,358.8 480.87,350.37 490.99,347 503.36,347 513.48,347 498.3,350.93 
	476.94,358.24 452.77,367.23 444.9,371.17 467.38,365.55 480.31,361.61 492.68,358.24 502.23,356.55 506.73,355.99 489.31,362.74 
	464.01,372.86 446.02,379.6 432.53,384.66 454.46,381.29 439.84,387.47 429.16,388.59 418.48,392.53 401.62,406.02 387.57,418.95 
	383.63,424.57 381.95,418.95 389.81,408.83 399.37,397.03 399.93,392.53 "/>
<polygon points="577.55,325.08 572.5,326.76 565.19,323.39 546.64,314.96 530.34,303.72 515.16,290.79 507.86,286.85 511.79,290.79 
	518.53,298.1 533.15,311.59 540.46,318.89 529.21,316.08 516.29,314.4 506.73,313.84 508.98,316.65 520.22,318.33 531.46,320.02 
	542.14,323.39 484.81,323.39 537.65,326.76 548.89,326.76 557.32,329.57 568,336.32 579.24,355.43 585.42,371.17 568,362.18 
	547.2,355.43 562.94,362.18 576.99,368.92 592.17,381.29 593.29,386.91 597.79,398.71 594.98,398.71 582.05,390.84 566.88,382.41 
	542.71,375.1 528.09,370.04 525.28,372.86 532.59,378.48 542.71,383.54 559.01,388.59 577.55,398.71 589.36,411.64 590.48,420.63 
	593.29,427.94 595.54,438.06 600.04,438.06 600.04,407.71 603.97,399.84 594.42,380.16 580.93,353.74 575.31,343.63 571.93,332.38 
	"/>
<path d="M482.56,377.35c0,0-6.18,3.93,0,5.62c6.18,1.69,19.67,0,19.67,0l15.74,0.56l17.42,2.25c0,0,12.93,3.37,23.61,10.68
	c10.68,7.31-7.31-6.75-7.31-6.75l-17.42-7.31l-15.74-3.37C518.53,379.04,498.3,375.67,482.56,377.35z"/>
<polygon points="403.56,369.42 444.06,342.22 453.05,338.29 448.55,346.16 426.63,364.14 405.27,381.01 400.74,383.93 "/>
<path class="st5" d="M398.12,505.8l4.85,18.52c0.42,1.6,3.62,3.09,8.87,4.13l24.36,4.84c5.37,1.07,12.41,1.57,19.44,1.39l25.34-0.65
	c9.95-0.26,19.64,0.86,24.76,2.85l63.92,24.88c0.58,0.22,1.22,0.44,1.92,0.65l49.07,14.36c3.57,1.05,5.51,2.34,5.51,3.67v12.19
	c0,0.81,17.94,2.85,32.28,4.35c10.35,1.08,16.34,3.62,14.74,6.22l-8.57,13.9c-0.26,0.42-0.32,0.84-0.19,1.26l2.23,7.25
	c0.33,1.06-0.58,2.12-2.63,3.07l-8.38,3.88c-3.79,1.76-3.57,3.83,0.58,5.55l16.43,6.77c2.15,0.89,3.28,1.88,3.28,2.9v5.18
	c0,1.76-3.37,3.42-9.19,4.54l-15.95,3.08c-6.28,1.21-9.67,3.05-9.13,4.94l1.53,5.32c0.35,1.21,2.28,2.36,5.54,3.3l10.52,3.05
	c4.98,1.44,6.77,3.34,4.83,5.13l0,0c-3.23,2.99-15.84,4.91-28.97,4.4l-42.52-1.64c-2.97-0.11-6.01-0.11-8.98,0.02l-53.93,2.38
	c-2.04,0.09-4.03,0.24-5.92,0.44l-24.46,2.62c-6.82,0.73-14.69,0.73-21.5-0.01l-66.64-7.21c-6.65-0.72-14.31-0.74-21.03-0.06
	l-42.66,4.32c-18,1.82-37.77-1.55-35.61-6.07l56.57-118.55c1.62-3.4-9.48-6.4-24.22-6.56"/>
<polygon points="417.92,347 435.34,334.07 425.79,338.57 429.16,332.38 438.72,326.2 449.96,318.89 462.33,311.02 470.76,303.72 
	451.08,311.59 444.34,314.4 439.84,317.21 434.22,321.7 428.6,326.76 424.1,334.07 "/>
<path class="st6" d="M391.4,673.29l-19.72-9.49l4.38,23.37l1.46,17.53l-13.15,5.84h-18.26c0,0-12.42,4.38-33.6-7.3
	c0,0,3.65,10.96,39.44,12.42l-6.57,3.65h-24.1c0,0-20.45,5.11-35.06-24.1c0,0,0.73,21.18,23.37,28.48c0,0,13.15,4.38,35.06,0
	l27.02,2.19l-16.8,3.65h-21.18h-25.56c0,0-21.18-3.65-32.87-18.26c0,0,13.88,21.91,22.64,29.21l49.66,0.73h54.04L391.4,673.29z"/>
<path class="st6" d="M633.2,710.68h11.8l-2.81,20.24h57.9c0,0,24.17-10.12,22.48-25.29c0,0-3.37-10.68,3.93-20.8l-13.49-52.27
	l-19.67-55.65l-10.12-25.86l-3.37-16.3v-7.87L665.8,507.2c0,0,5.62-14.05-60.14-11.24c0,0,28.67-14.05,60.14-0.56l7.31,5.06
	l7.87,14.05l7.31,6.75l-1.12,20.24l1.12,7.31l11.24,26.98l15.74,40.47l7.87,25.86l7.31,30.35l2.25,15.74l0.56,16.3l-3.93,10.12
	l-8.99,16.3l-10.12,13.49l-79.26-2.25L633.2,710.68z"/>
<path class="st6" d="M670.3,493.71h-9.56l0.56-3.93c0,0-6.18-7.87-34.85-7.87l7.31,4.5c0,0-34.85-1.12-45.53,9.56l-2.81,6.75
	l-38.78,16.86l-12.93,5.62c0,0-10.12,7.87-32.04,6.75l-20.8-3.37l-19.11-3.93l19.11,1.12l-14.61-4.5l-27.54-7.31l-24.73-5.06
	l-15.18-4.5l-3.93-5.62l17.99,3.37l11.24,1.12l11.8,1.69l13.49,0.56c0,0-18.55-15.74-50.03-18.55l-7.31-1.69
	c0,0,7.31-3.37,22.48,1.12c0,0,0.56-5.06-18.55-5.62l-39.35,4.5c0,0,15.18-9.56,43.84-8.43c0,0-13.49-10.68-47.78,3.37l4.5-11.8
	l10.12-3.37l16.3-7.31l14.05-1.69l4.5,3.37l7.31,7.87l7.31,6.18l14.61,10.12l21.36,12.37l11.24,3.93l8.99,5.06l6.75,11.8l15.74,2.81
	h16.86l14.05-1.12l11.24-5.06l15.74-12.37l6.75-2.25l26.98-8.43l13.49-5.06h-5.06l8.43-5.62c0,0-9.56,1.69-19.67,5.62
	c-10.12,3.93,0.56-6.75,0.56-6.75v-8.99l8.43-10.12l6.18-21.36l12.37,5.06l16.86,7.87l11.8,5.62l10.68,5.62l8.43,8.43l8.99,10.12
	l1.69,4.5V493.71z"/>
<path class="st7" d="M550.86,572.68h-98.93v-52.27h-5.06v52.27h-3.37l-3.37-56.77h-6.75l4.5,38.78c0,0-44.97-36.54-52.27-60.14
	c0,0-7.87,7.31,16.3,33.16l15.18,19.11v5.06l17.42,14.61c0,0,5.62,5.06,0,6.18l-17.42-13.49l12.37,13.49h-5.06l-12.93-12.37
	l-9.56-9.56l-17.99-15.18l-16.86-14.05l-13.49-10.12v6.75l0.56,3.93l5.62,7.87l8.99,10.12l3.37,5.06l-2.81,1.12l-7.87-4.5
	l-3.37-0.56l1.12,3.37l5.06,5.62l3.37,4.5l6.18,8.43l5.06,9.56l-4.5,1.12l-10.12-1.12l-6.18,1.12l-5.62,3.93l5.62-6.18l-7.31,5.06
	L344,582.8l-2.25-12.37l-1.69-14.61l-1.69-10.12l-1.69,10.68v11.24l2.25,11.24l1.69,5.06l1.69,6.75v8.43l-2.25,5.62l-3.93,5.62
	l2.25,10.12l2.81,8.99l1.12,4.5l-1.12,1.12l-3.37-7.87l-2.81-3.93v-5.62l-1.69,4.5l2.81,8.43l1.69,6.18l-1.12,0.56l-3.37-7.87
	l-2.25-7.31v-6.18l-1.12-3.37l-3.37-1.69c0,0-3.37-7.87-1.12-10.12l6.18-18.55l-6.75,11.8l5.62-17.42l-6.75,12.93l-2.25-6.75
	l0.56-18.55l-1.69,10.12l-1.12-8.43v10.12v9.56l1.12,10.68l2.25,10.68l2.81,6.18l2.81,7.31c0,0,5.06,13.49-5.06,3.93
	c0,0-11.8-19.11-15.18-19.67c0,0,5.62,19.11,24.73,38.22c0,0,2.81,3.93-2.25,1.12l-16.3-12.93c0,0,2.25,8.43,16.86,17.99
	c0,0,5.06,4.5-2.25,0c0,0-19.67-11.24-27.54-7.87c0,0-14.61,6.18-18.55,13.49c0,0,8.43-6.18,14.61-10.12l1.69-0.56l-1.12,1.69
	c0,0-9.56,6.18-9.56,7.31s0,1.69,0,1.69l6.18-5.62l7.31-3.93h3.37l-6.75,5.06l6.75-2.81l2.81-1.12h3.37l5.62,1.69
	c0,0-5.62,1.12-6.18,3.37c0,0,5.06-2.25,11.24-1.69c0,0,13.49,2.81,17.99,7.87l-2.25,3.37l-3.37-0.56l-8.43-2.81L311.4,657
	l-8.99,1.69l-3.93,2.25l-2.25,3.37l5.62-3.37l7.31-1.69l10.12-0.56h7.87l2.25,1.12l-15.18,9.56l8.99-2.25l6.18-1.69l5.62-1.12
	l0.56,1.12l-0.56,2.25l-14.05,5.06l-13.49,5.62l-6.75,3.37v5.62l12.37-5.62l12.37-2.25l16.3-3.93l-7.31,6.75l5.06-0.56l6.75,0.56
	l6.18-3.93l-0.56,5.06l6.18-0.56l5.62-1.12l7.31,1.69l254.63-1.12l14.05-1.69l19.11,2.25l-9.56-6.75l15.18,2.25l8.43,2.81l8.99,3.93
	l8.43,5.06l5.06,2.25l5.06-6.18l-10.68-5.06l-13.49-7.87l-8.99-2.25l-10.12-1.69l-2.25-3.37l5.62-5.62l2.25-2.81l18.55,12.37
	l8.43,7.31l10.68,5.06h4.5l1.12-5.62l-10.68-8.99L683.51,657l-7.31-6.18l1.12-1.69l7.31,3.37l14.61,9.56l14.61,10.12l1.69-5.62
	l-11.8-7.87l-7.31-5.06l-6.18-6.75l-4.5-5.62l-21.36-1.12h-10.12l0.56-4.5l8.99-1.69l-10.68-0.56l6.75-4.5l-2.25-6.18l-7.87,8.99
	l-2.81-2.81v-3.37l4.5-6.75l15.18-15.74l9.56-5.62l4.5-6.18l3.93-10.12l1.69-7.87l0.56-3.93l-7.31,5.62l-4.5,7.31l-7.31,8.43
	l-5.06,5.06l-5.62,5.62c0,0-6.75,2.81-5.06-5.06l-0.56-7.31c0,0,1.12-5.06-6.18-10.12c0,0-2.25-6.18-12.93-6.18l14.61-16.86
	l-14.05,11.24l7.31-10.12l11.24-17.42l8.43-12.93c0,0,2.81-8.43-1.12-10.68l-8.99,12.37l-19.11,23.61c0,0-11.8,14.61-9.56-3.37
	l12.37-27.54l-23.61,23.61L593.01,562l-3.93,5.06l-3.37,0.56l-2.81,2.25v2.81l-15.18-0.56v-57.9l-6.18,2.81l1.12,55.09l-2.81,1.69
	l-2.25-0.56l1.12-56.21l-5.62,4.5l-0.56,47.78L550.86,572.68z"/>
<path class="st8" d="M356.37,584.48c0,0-2.25-11.24,12.37-10.68c14.61,0.56,260.25-0.56,260.25-0.56s11.8-0.56,11.24,10.12
	c-0.56,10.68-8.43,161.32-8.43,161.32H377.73L356.37,584.48z"/>
<path class="st9" d="M356.37,584.48c0,0-2.25-11.24,12.37-10.68c14.61,0.56,260.25-0.56,260.25-0.56s11.8-0.56,11.24,10.12
	c-0.56,10.68-8.43,161.32-8.43,161.32H377.73L356.37,584.48z"/>
<g>
	<path class="st10" d="M439.12,638.34h-9.45l-1.38,10.44h-15.95l10.05-56.53h23.64l10.44,56.53H440.4L439.12,638.34z M433.31,604.46
		l-2.46,23.24h7.09l-3.05-23.24H433.31z"/>
	<path class="st10" d="M459.31,592.25h16.35v45.89h14.58v10.64h-30.92V592.25z"/>
	<path class="st10" d="M495.06,592.25h16.35v56.53h-16.35V592.25z"/>
	<path class="st10" d="M519.88,592.25h30.04v10.64h-13.69v10.64h11.33v10.64h-11.33v13.98h14.08v10.64h-30.43V592.25z"/>
	<path class="st10" d="M570.59,621.2v27.57h-15.36v-56.53l13.72-0.01l10.7,27.24v-27.23h15.17v56.53h-13.39L570.59,621.2z"/>
</g>
<g>
	<path class="st11" d="M432.47,706.13h-6.7v22.65h-16.35v-56.53h27.87l10.93,8.27v14.67l-8.08,5.61l8.08,5.32v22.65h-15.76V706.13z
		 M432.47,682.89h-6.7v12.61h6.7V682.89z"/>
	<path class="st11" d="M467.03,672.26h17.53l10.93,8.27v40.08l-10.34,8.17h-18.12l-10.73-8.17v-40.08L467.03,672.26z M472.65,682.89
		v35.26h6.7v-35.26H472.65z"/>
	<path class="st11" d="M514.3,672.26h17.53l10.93,8.27v40.08l-10.34,8.17H514.3l-10.73-8.17v-40.08L514.3,672.26z M519.92,682.89
		v35.26h6.7v-35.26H519.92z"/>
	<path class="st11" d="M577.45,699.54l5.1-27.28h19.31v56.53h-14.87v-35.85h-0.79l-6.7,35.85h-6.11l-6.79-35.85h-0.79v35.85h-14.77
		v-56.53h19.06l5.77,27.28L577.45,699.54z"/>
</g>
<polyline points="454.21,289.87 446.18,302.28 436.68,321.27 462.98,290.6 452.02,298.63 465.9,274.53 460.79,276.72 "/>
<polygon points="506.07,259.36 513.06,259.36 518.31,262.31 527.06,271.15 541.64,284.71 546.89,289.43 544.55,294.15 
	546.89,297.09 562.63,307.71 573.71,314.78 577.79,321.27 581.29,321.27 581.29,315.96 557.97,295.33 531.14,269.97 517.73,259.36 
	510.73,257 "/>
<g>
	<path class="st12" d="M497.35,538.05c-16.12-2.87-26.6-9.68-36.76-25.71c-4.42-6.98-12.34-15.15-16.26-24.26
		c-7.07-16.4-20.11-35.8-20.11-56.6c0-9.72-0.76-16.42,1.19-24.2c1.79-7.14,13.83-8.73,30.27-12.25
		c20.45-4.38,22.71-4.38,41.67-4.38"/>
	<path class="st12" d="M496.1,538.05c16.12-2.87,26.6-9.68,36.76-25.71c4.42-6.98,12.34-15.15,16.26-24.26
		c7.07-16.4,20.11-35.8,20.11-56.6c0-6.77,0.08-10.15-0.54-16.01c-0.54-5.1-6.39-5.1-22.5-13.86
		c-19.74-10.72-31.13-10.96-50.09-10.96"/>
</g>
<path class="st13" d="M502.27,480.35l49.86-49.86c1.53-1.53,4.15-0.71,4.52,1.42c2.73,15.77,6.32,63.42-53.31,51.95
	C501.72,483.54,501.1,481.52,502.27,480.35z"/>
<path class="st13" d="M491.4,480.35l-49.86-49.86c-1.53-1.53-4.15-0.71-4.52,1.42c-2.73,15.77-6.32,63.42,53.31,51.95
	C491.96,483.54,492.58,481.52,491.4,480.35z"/>
</svg>
